<svg version="1.1" id="Layer_1" xmlns="http://www.w3.org/2000/svg" xmlns:xlink="http://www.w3.org/1999/xlink" x="0px" y="0px"
	 width="100%" viewBox="0 0 64 64" enable-background="new 0 0 64 64" xml:space="preserve">
<path fill="#1f293b" opacity="1.000000" stroke="none" 
	d="
M37.000000,65.000000 
	C24.689823,65.000000 12.879644,65.000000 1.034734,65.000000 
	C1.034734,43.731613 1.034734,22.463160 1.034734,1.097352 
	C22.226290,1.097352 43.453175,1.097352 64.840027,1.097352 
	C64.840027,22.332373 64.840027,43.666073 64.840027,65.000000 
	C55.797436,65.000000 46.648716,65.000000 37.000000,65.000000 
M12.662223,29.036562 
	C6.937311,30.917902 3.135980,34.431072 3.045501,40.836536 
	C2.972397,46.011879 6.552408,51.137871 12.167426,52.620159 
	C25.948889,56.258282 39.824532,56.180374 53.388058,51.579983 
	C59.924175,49.363110 63.148266,44.125423 62.974182,37.889275 
	C62.801018,31.686155 59.035774,26.828453 53.028851,24.239876 
	C51.143814,23.427549 49.364746,21.759447 48.180843,20.039888 
	C43.978901,13.936812 38.416389,10.498996 30.959667,11.113059 
	C23.737398,11.707815 18.651392,15.693090 15.735518,22.317581 
	C14.810699,24.418652 14.169636,26.644619 12.662223,29.036562 
z"/>
<path fill="#FDFDFD" opacity="1.000000" stroke="none" 
	d="
M13.030472,28.924997 
	C14.169636,26.644619 14.810699,24.418652 15.735518,22.317581 
	C18.651392,15.693090 23.737398,11.707815 30.959667,11.113059 
	C38.416389,10.498996 43.978901,13.936812 48.180843,20.039888 
	C49.364746,21.759447 51.143814,23.427549 53.028851,24.239876 
	C59.035774,26.828453 62.801018,31.686155 62.974182,37.889275 
	C63.148266,44.125423 59.924175,49.363110 53.388058,51.579983 
	C39.824532,56.180374 25.948889,56.258282 12.167426,52.620159 
	C6.552408,51.137871 2.972397,46.011879 3.045501,40.836536 
	C3.135980,34.431072 6.937311,30.917902 13.030472,28.924997 
z"/>
</svg>