<svg version="1.1" id="Layer_1" xmlns="http://www.w3.org/2000/svg" xmlns:xlink="http://www.w3.org/1999/xlink" x="0px" y="0px"
	 width="100%" viewBox="0 0 96 96" enable-background="new 0 0 96 96" xml:space="preserve">
<path fill="#202A3C" opacity="1.000000" stroke="none" 
	d="
M60.000000,97.000000 
	C40.000004,97.000000 20.500008,97.000000 1.000008,97.000000 
	C1.000005,65.000008 1.000005,33.000019 1.000003,1.000021 
	C32.999985,1.000014 64.999969,1.000014 96.999969,1.000007 
	C96.999977,32.999981 96.999977,64.999962 96.999985,96.999969 
	C84.833336,97.000000 72.666664,97.000000 60.000000,97.000000 
M44.722034,12.851622 
	C43.452377,13.219867 42.192352,13.626127 40.911579,13.950482 
	C27.991636,17.222458 19.243898,25.081064 14.884414,37.704720 
	C14.082992,40.025379 13.566700,42.444504 12.847109,45.080822 
	C10.272181,45.080822 7.827247,45.080822 5.206300,45.080822 
	C5.206300,47.811661 5.206300,50.221321 5.206300,52.940536 
	C7.860246,52.940536 10.308019,52.940536 12.954515,52.940536 
	C16.325090,70.997688 26.977608,81.654373 45.217823,85.044914 
	C45.217823,87.769020 45.217823,90.340988 45.217823,92.650803 
	C48.115742,92.650803 50.523197,92.650803 53.229988,92.650803 
	C53.229988,89.857269 53.229988,87.423065 53.229988,85.090088 
	C73.386223,79.295601 78.403488,74.260986 85.176422,53.161709 
	C87.701965,53.045910 90.280327,52.927689 92.683876,52.817486 
	C92.683876,49.945995 92.683876,47.535244 92.683876,44.830757 
	C89.917366,44.830757 87.475388,44.830757 84.851959,44.830757 
	C83.518982,36.501476 80.798073,28.702944 74.304649,23.665955 
	C68.068779,18.828751 60.696899,15.456036 53.824219,11.439777 
	C53.484051,11.792356 53.143879,12.144934 52.803707,12.497513 
	C52.803707,10.073073 52.803707,7.648635 52.803707,5.282001 
	C50.017426,5.282001 47.606480,5.282001 44.965893,5.282001 
	C44.965893,7.714369 44.965893,9.861852 44.722034,12.851622 
z"/>
<path fill="#FAFBFB" opacity="1.000000" stroke="none" 
	d="
M44.843964,12.430479 
	C44.965893,9.861852 44.965893,7.714369 44.965893,5.282001 
	C47.606480,5.282001 50.017426,5.282001 52.803707,5.282001 
	C52.803707,7.648635 52.803707,10.073073 52.803707,12.497513 
	C53.143879,12.144934 53.484051,11.792356 53.824219,11.439777 
	C60.696899,15.456036 68.068779,18.828751 74.304649,23.665955 
	C80.798073,28.702944 83.518982,36.501476 84.851959,44.830757 
	C87.475388,44.830757 89.917366,44.830757 92.683876,44.830757 
	C92.683876,47.535244 92.683876,49.945995 92.683876,52.817486 
	C90.280327,52.927689 87.701965,53.045910 85.176422,53.161709 
	C78.403488,74.260986 73.386223,79.295601 53.229988,85.090088 
	C53.229988,87.423065 53.229988,89.857269 53.229988,92.650803 
	C50.523197,92.650803 48.115742,92.650803 45.217823,92.650803 
	C45.217823,90.340988 45.217823,87.769020 45.217823,85.044914 
	C26.977608,81.654373 16.325090,70.997688 12.954515,52.940536 
	C10.308019,52.940536 7.860246,52.940536 5.206300,52.940536 
	C5.206300,50.221321 5.206300,47.811661 5.206300,45.080822 
	C7.827247,45.080822 10.272181,45.080822 12.847109,45.080822 
	C13.566700,42.444504 14.082992,40.025379 14.884414,37.704720 
	C19.243898,25.081064 27.991636,17.222458 40.911579,13.950482 
	C42.192352,13.626127 43.452377,13.219867 44.843964,12.430479 
M76.869217,45.930676 
	C76.631401,44.791069 76.438530,43.639896 76.148796,42.513645 
	C73.325310,31.537956 66.467041,24.477650 55.426472,21.872139 
	C44.162327,19.213871 34.521980,22.514097 27.280430,31.397707 
	C20.162378,40.129814 19.039555,50.132717 23.486044,60.486412 
	C28.664225,72.543869 41.955452,79.159912 54.719139,76.344154 
	C68.827766,73.231697 77.127243,62.193947 76.869217,45.930676 
z"/>
<path fill="#222C3E" opacity="1.000000" stroke="none" 
	d="
M76.898979,46.368771 
	C77.127243,62.193947 68.827766,73.231697 54.719139,76.344154 
	C41.955452,79.159912 28.664225,72.543869 23.486044,60.486412 
	C19.039555,50.132717 20.162378,40.129814 27.280430,31.397707 
	C34.521980,22.514097 44.162327,19.213871 55.426472,21.872139 
	C66.467041,24.477650 73.325310,31.537956 76.148796,42.513645 
	C76.438530,43.639896 76.631401,44.791069 76.898979,46.368771 
M37.314388,51.777439 
	C40.518383,59.667339 47.102428,62.922260 53.815933,59.935234 
	C59.904682,57.226170 62.653278,50.010368 59.882351,44.009262 
	C57.605968,39.079216 51.879116,36.132729 46.680637,37.216930 
	C40.477554,38.510658 36.979538,43.566689 37.314388,51.777439 
z"/>
<path fill="#FBFBFC" opacity="1.000000" stroke="none" 
	d="
M37.231773,51.385582 
	C36.979538,43.566689 40.477554,38.510658 46.680637,37.216930 
	C51.879116,36.132729 57.605968,39.079216 59.882351,44.009262 
	C62.653278,50.010368 59.904682,57.226170 53.815933,59.935234 
	C47.102428,62.922260 40.518383,59.667339 37.231773,51.385582 
z"/>
</svg>