<!DOCTYPE svg PUBLIC "-//W3C//DTD SVG 1.1//EN" "http://www.w3.org/Graphics/SVG/1.1/DTD/svg11.dtd">
<!-- Uploaded to: SVG Repo, www.svgrepo.com, Transformed by: SVG Repo Mixer Tools -->
<svg fill="#ffffff" width="800px" height="800px" viewBox="0 0 24 24" xmlns="http://www.w3.org/2000/svg" stroke="#ffffff">
<g id="SVGRepo_bgCarrier" stroke-width="0"/>
<g id="SVGRepo_tracerCarrier" stroke-linecap="round" stroke-linejoin="round"/>
<g id="SVGRepo_iconCarrier">
<path d="M8.243,11.97l12-3A1,1,0,0,0,21,8V5a1,1,0,0,0-.835-.986l-12-2A1,1,0,0,0,7,3v8A1,1,0,0,0,8.243,11.97ZM17,5.514l2,.333V7.219l-2,.5Zm-4-.667,1,.167,1,.167V8.219l-2,.5ZM9,4.181l2,.333v4.7l-2,.5ZM3,22V2A1,1,0,0,1,5,2V22a1,1,0,0,1-2,0Z"/>
</g>
</svg>